<svg width="94" height="72" viewBox="0 0 94 72" fill="none" xmlns="http://www.w3.org/2000/svg">
<g filter="url(#filter0_d_558_299)">
<path d="M46.995 28.4737V31.8037M47.015 24.0337C43.335 24.0337 40.355 27.0137 40.355 30.6937V32.7937C40.355 33.4737 40.075 34.4937 39.725 35.0737L38.455 37.1937C37.675 38.5037 38.215 39.9637 39.655 40.4437C44.4363 42.0337 49.6037 42.0337 54.385 40.4437C54.7005 40.3384 54.9883 40.1637 55.2272 39.9323C55.4661 39.7008 55.6499 39.4187 55.7651 39.1067C55.8803 38.7947 55.9239 38.4608 55.8927 38.1297C55.8616 37.7986 55.7564 37.4787 55.585 37.1937L54.315 35.0737C53.965 34.4937 53.685 33.4637 53.685 32.7937V30.6937C53.675 27.0337 50.675 24.0337 47.015 24.0337Z" stroke="#60A5FA" stroke-width="1.5" stroke-miterlimit="10" stroke-linecap="round"/>
<path d="M50.3299 41.6362C50.3299 43.4662 48.8299 44.9662 46.9999 44.9662C46.0899 44.9662 45.2499 44.5862 44.6499 43.9862C44.0499 43.3862 43.6699 42.5462 43.6699 41.6362" stroke="#60A5FA" stroke-width="1.5" stroke-miterlimit="10"/>
<rect x="25.5" y="13.5" width="43" height="42" rx="21" stroke="#60A5FA" shape-rendering="crispEdges"/>
</g>
<defs>
<filter id="filter0_d_558_299" x="0" y="0" width="94" height="93" filterUnits="userSpaceOnUse" color-interpolation-filters="sRGB">
<feFlood flood-opacity="0" result="BackgroundImageFix"/>
<feColorMatrix in="SourceAlpha" type="matrix" values="0 0 0 0 0 0 0 0 0 0 0 0 0 0 0 0 0 0 127 0" result="hardAlpha"/>
<feOffset dy="12"/>
<feGaussianBlur stdDeviation="12.5"/>
<feComposite in2="hardAlpha" operator="out"/>
<feColorMatrix type="matrix" values="0 0 0 0 0.694118 0 0 0 0 0.572549 0 0 0 0 0.858824 0 0 0 1 0"/>
<feBlend mode="normal" in2="BackgroundImageFix" result="effect1_dropShadow_558_299"/>
<feBlend mode="normal" in="SourceGraphic" in2="effect1_dropShadow_558_299" result="shape"/>
</filter>
</defs>
</svg>
