<svg width="146" height="23" viewBox="0 0 146 23" fill="none" xmlns="http://www.w3.org/2000/svg">
<path d="M8.03 22.24C6.43 22.24 5.03 21.99 3.83 21.49C2.63 20.97 1.7 20.24 1.04 19.3C0.4 18.34 0.0800001 17.23 0.0800001 15.97V15.31C0.0800001 15.21 0.11 15.13 0.17 15.07C0.25 14.99 0.34 14.95 0.44 14.95H3.86C3.96 14.95 4.04 14.99 4.1 15.07C4.18 15.13 4.22 15.21 4.22 15.31V15.76C4.22 16.56 4.59 17.24 5.33 17.8C6.07 18.34 7.07 18.61 8.33 18.61C9.39 18.61 10.18 18.39 10.7 17.95C11.22 17.49 11.48 16.93 11.48 16.27C11.48 15.79 11.32 15.39 11 15.07C10.68 14.73 10.24 14.44 9.68 14.2C9.14 13.94 8.27 13.59 7.07 13.15C5.73 12.69 4.59 12.22 3.65 11.74C2.73 11.26 1.95 10.61 1.31 9.79C0.69 8.95 0.38 7.92 0.38 6.7C0.38 5.5 0.69 4.45 1.31 3.55C1.93 2.65 2.79 1.96 3.89 1.48C4.99 1 6.26 0.76 7.7 0.76C9.22 0.76 10.57 1.03 11.75 1.57C12.95 2.11 13.88 2.87 14.54 3.85C15.22 4.81 15.56 5.93 15.56 7.21V7.66C15.56 7.76 15.52 7.85 15.44 7.93C15.38 7.99 15.3 8.02 15.2 8.02H11.75C11.65 8.02 11.56 7.99 11.48 7.93C11.42 7.85 11.39 7.76 11.39 7.66V7.42C11.39 6.58 11.04 5.87 10.34 5.29C9.66 4.69 8.72 4.39 7.52 4.39C6.58 4.39 5.84 4.59 5.3 4.99C4.78 5.39 4.52 5.94 4.52 6.64C4.52 7.14 4.67 7.56 4.97 7.9C5.29 8.24 5.75 8.55 6.35 8.83C6.97 9.09 7.92 9.45 9.2 9.91C10.62 10.43 11.73 10.89 12.53 11.29C13.35 11.69 14.08 12.29 14.72 13.09C15.38 13.87 15.71 14.89 15.71 16.15C15.71 18.03 15.02 19.52 13.64 20.62C12.26 21.7 10.39 22.24 8.03 22.24ZM25.2118 22.24C23.5318 22.24 22.0918 21.8 20.8918 20.92C19.6918 20.04 18.8718 18.84 18.4318 17.32C18.1518 16.38 18.0118 15.36 18.0118 14.26C18.0118 13.08 18.1518 12.02 18.4318 11.08C18.8918 9.6 19.7218 8.44 20.9218 7.6C22.1218 6.76 23.5618 6.34 25.2418 6.34C26.8818 6.34 28.2818 6.76 29.4418 7.6C30.6018 8.42 31.4218 9.57 31.9018 11.05C32.2218 12.05 32.3818 13.1 32.3818 14.2C32.3818 15.28 32.2418 16.29 31.9618 17.23C31.5218 18.79 30.7018 20.02 29.5018 20.92C28.3218 21.8 26.8918 22.24 25.2118 22.24ZM25.2118 18.61C25.8718 18.61 26.4318 18.41 26.8918 18.01C27.3518 17.61 27.6818 17.06 27.8818 16.36C28.0418 15.72 28.1218 15.02 28.1218 14.26C28.1218 13.42 28.0418 12.71 27.8818 12.13C27.6618 11.45 27.3218 10.92 26.8618 10.54C26.4018 10.16 25.8418 9.97 25.1818 9.97C24.5018 9.97 23.9318 10.16 23.4718 10.54C23.0318 10.92 22.7118 11.45 22.5118 12.13C22.3518 12.61 22.2718 13.32 22.2718 14.26C22.2718 15.16 22.3418 15.86 22.4818 16.36C22.6818 17.06 23.0118 17.61 23.4718 18.01C23.9518 18.41 24.5318 18.61 25.2118 18.61ZM41.881 22.24C40.281 22.24 38.891 21.84 37.711 21.04C36.551 20.24 35.721 19.14 35.221 17.74C34.881 16.74 34.711 15.56 34.711 14.2C34.711 12.86 34.881 11.7 35.221 10.72C35.701 9.36 36.531 8.29 37.711 7.51C38.891 6.73 40.281 6.34 41.881 6.34C43.481 6.34 44.881 6.74 46.081 7.54C47.301 8.34 48.111 9.35 48.511 10.57C48.671 11.05 48.751 11.41 48.751 11.65V11.71C48.751 11.89 48.651 12 48.451 12.04L45.001 12.55H44.941C44.761 12.55 44.641 12.45 44.581 12.25L44.491 11.77C44.351 11.25 44.041 10.82 43.561 10.48C43.081 10.14 42.511 9.97 41.851 9.97C41.211 9.97 40.671 10.13 40.231 10.45C39.791 10.77 39.481 11.21 39.301 11.77C39.081 12.37 38.971 13.19 38.971 14.23C38.971 15.27 39.071 16.09 39.271 16.69C39.451 17.29 39.761 17.76 40.201 18.1C40.661 18.44 41.211 18.61 41.851 18.61C42.471 18.61 43.011 18.45 43.471 18.13C43.951 17.79 44.281 17.33 44.461 16.75C44.481 16.71 44.491 16.65 44.491 16.57C44.511 16.55 44.521 16.52 44.521 16.48C44.541 16.24 44.681 16.14 44.941 16.18L48.391 16.72C48.591 16.76 48.691 16.87 48.691 17.05C48.691 17.21 48.631 17.51 48.511 17.95C48.091 19.29 47.271 20.34 46.051 21.1C44.851 21.86 43.461 22.24 41.881 22.24ZM53.4943 4.84C52.8143 4.84 52.2443 4.62 51.7843 4.18C51.3443 3.72 51.1243 3.15 51.1243 2.47C51.1243 1.77 51.3443 1.2 51.7843 0.76C52.2243 0.32 52.7943 0.0999994 53.4943 0.0999994C54.1943 0.0999994 54.7643 0.32 55.2043 0.76C55.6443 1.2 55.8643 1.77 55.8643 2.47C55.8643 3.15 55.6343 3.72 55.1743 4.18C54.7343 4.62 54.1743 4.84 53.4943 4.84ZM51.6943 22C51.5943 22 51.5043 21.97 51.4243 21.91C51.3643 21.83 51.3343 21.74 51.3343 21.64V6.91C51.3343 6.81 51.3643 6.73 51.4243 6.67C51.5043 6.59 51.5943 6.55 51.6943 6.55H55.2043C55.3043 6.55 55.3843 6.59 55.4443 6.67C55.5243 6.73 55.5643 6.81 55.5643 6.91V21.64C55.5643 21.74 55.5243 21.83 55.4443 21.91C55.3843 21.97 55.3043 22 55.2043 22H51.6943ZM65.0108 6.34C66.3108 6.34 67.4708 6.57 68.4908 7.03C69.5108 7.47 70.3008 8.08 70.8608 8.86C71.4408 9.64 71.7308 10.51 71.7308 11.47V21.64C71.7308 21.74 71.6908 21.83 71.6108 21.91C71.5508 21.97 71.4708 22 71.3708 22H67.8608C67.7608 22 67.6708 21.97 67.5908 21.91C67.5308 21.83 67.5008 21.74 67.5008 21.64V20.65C67.5008 20.59 67.4808 20.55 67.4408 20.53C67.4008 20.51 67.3608 20.53 67.3208 20.59C66.4808 21.69 65.1308 22.24 63.2708 22.24C61.7108 22.24 60.4508 21.86 59.4908 21.1C58.5308 20.34 58.0508 19.22 58.0508 17.74C58.0508 16.2 58.5908 15.01 59.6708 14.17C60.7508 13.31 62.2908 12.88 64.2908 12.88H67.3508C67.4508 12.88 67.5008 12.83 67.5008 12.73V12.07C67.5008 11.41 67.3008 10.9 66.9008 10.54C66.5008 10.16 65.9008 9.97 65.1008 9.97C64.4808 9.97 63.9608 10.08 63.5408 10.3C63.1408 10.52 62.8808 10.83 62.7608 11.23C62.7008 11.45 62.5708 11.55 62.3708 11.53L58.7408 11.05C58.5008 11.01 58.3908 10.92 58.4108 10.78C58.4908 9.94 58.8208 9.18 59.4008 8.5C60.0008 7.82 60.7808 7.29 61.7408 6.91C62.7208 6.53 63.8108 6.34 65.0108 6.34ZM64.4108 19.09C65.2708 19.09 66.0008 18.86 66.6008 18.4C67.2008 17.94 67.5008 17.35 67.5008 16.63V15.55C67.5008 15.45 67.4508 15.4 67.3508 15.4H65.1908C64.2908 15.4 63.5808 15.57 63.0608 15.91C62.5608 16.25 62.3108 16.73 62.3108 17.35C62.3108 17.89 62.5008 18.32 62.8808 18.64C63.2608 18.94 63.7708 19.09 64.4108 19.09ZM75.0704 22C74.9704 22 74.8804 21.97 74.8004 21.91C74.7404 21.83 74.7104 21.74 74.7104 21.64V1.36C74.7104 1.26 74.7404 1.18 74.8004 1.12C74.8804 1.04 74.9704 0.999999 75.0704 0.999999H78.5804C78.6804 0.999999 78.7604 1.04 78.8204 1.12C78.9004 1.18 78.9404 1.26 78.9404 1.36V21.64C78.9404 21.74 78.9004 21.83 78.8204 21.91C78.7604 21.97 78.6804 22 78.5804 22H75.0704ZM96.8846 4.27C96.8846 4.37 96.8446 4.46 96.7646 4.54C96.7046 4.6 96.6246 4.63 96.5246 4.63H86.6846C86.5846 4.63 86.5346 4.68 86.5346 4.78V9.43C86.5346 9.53 86.5846 9.58 86.6846 9.58H93.1346C93.2346 9.58 93.3146 9.62 93.3746 9.7C93.4546 9.76 93.4946 9.84 93.4946 9.94V12.85C93.4946 12.95 93.4546 13.04 93.3746 13.12C93.3146 13.18 93.2346 13.21 93.1346 13.21H86.6846C86.5846 13.21 86.5346 13.26 86.5346 13.36V18.22C86.5346 18.32 86.5846 18.37 86.6846 18.37H96.5246C96.6246 18.37 96.7046 18.41 96.7646 18.49C96.8446 18.55 96.8846 18.63 96.8846 18.73V21.64C96.8846 21.74 96.8446 21.83 96.7646 21.91C96.7046 21.97 96.6246 22 96.5246 22H82.6646C82.5646 22 82.4746 21.97 82.3946 21.91C82.3346 21.83 82.3046 21.74 82.3046 21.64V1.36C82.3046 1.26 82.3346 1.18 82.3946 1.12C82.4746 1.04 82.5646 0.999999 82.6646 0.999999H96.5246C96.6246 0.999999 96.7046 1.04 96.7646 1.12C96.8446 1.18 96.8846 1.26 96.8846 1.36V4.27ZM106.334 22.24C104.734 22.24 103.344 21.84 102.164 21.04C101.004 20.24 100.174 19.14 99.6741 17.74C99.3341 16.74 99.1641 15.56 99.1641 14.2C99.1641 12.86 99.3341 11.7 99.6741 10.72C100.154 9.36 100.984 8.29 102.164 7.51C103.344 6.73 104.734 6.34 106.334 6.34C107.934 6.34 109.334 6.74 110.534 7.54C111.754 8.34 112.564 9.35 112.964 10.57C113.124 11.05 113.204 11.41 113.204 11.65V11.71C113.204 11.89 113.104 12 112.904 12.04L109.454 12.55H109.394C109.214 12.55 109.094 12.45 109.034 12.25L108.944 11.77C108.804 11.25 108.494 10.82 108.014 10.48C107.534 10.14 106.964 9.97 106.304 9.97C105.664 9.97 105.124 10.13 104.684 10.45C104.244 10.77 103.934 11.21 103.754 11.77C103.534 12.37 103.424 13.19 103.424 14.23C103.424 15.27 103.524 16.09 103.724 16.69C103.904 17.29 104.214 17.76 104.654 18.1C105.114 18.44 105.664 18.61 106.304 18.61C106.924 18.61 107.464 18.45 107.924 18.13C108.404 17.79 108.734 17.33 108.914 16.75C108.934 16.71 108.944 16.65 108.944 16.57C108.964 16.55 108.974 16.52 108.974 16.48C108.994 16.24 109.134 16.14 109.394 16.18L112.844 16.72C113.044 16.76 113.144 16.87 113.144 17.05C113.144 17.21 113.084 17.51 112.964 17.95C112.544 19.29 111.724 20.34 110.504 21.1C109.304 21.86 107.914 22.24 106.334 22.24ZM123.707 6.34C125.307 6.34 126.597 6.83 127.577 7.81C128.557 8.79 129.047 10.12 129.047 11.8V21.64C129.047 21.74 129.007 21.83 128.927 21.91C128.867 21.97 128.787 22 128.687 22H125.177C125.077 22 124.987 21.97 124.907 21.91C124.847 21.83 124.817 21.74 124.817 21.64V12.67C124.817 11.87 124.587 11.22 124.127 10.72C123.687 10.22 123.097 9.97 122.357 9.97C121.617 9.97 121.017 10.22 120.557 10.72C120.117 11.22 119.897 11.87 119.897 12.67V21.64C119.897 21.74 119.857 21.83 119.777 21.91C119.717 21.97 119.637 22 119.537 22H116.027C115.927 22 115.837 21.97 115.757 21.91C115.697 21.83 115.667 21.74 115.667 21.64V1.36C115.667 1.26 115.697 1.18 115.757 1.12C115.837 1.04 115.927 0.999999 116.027 0.999999H119.537C119.637 0.999999 119.717 1.04 119.777 1.12C119.857 1.18 119.897 1.26 119.897 1.36V7.99C119.897 8.05 119.917 8.09 119.957 8.11C119.997 8.13 120.027 8.12 120.047 8.08C120.867 6.92 122.087 6.34 123.707 6.34ZM138.796 22.24C137.116 22.24 135.676 21.8 134.476 20.92C133.276 20.04 132.456 18.84 132.016 17.32C131.736 16.38 131.596 15.36 131.596 14.26C131.596 13.08 131.736 12.02 132.016 11.08C132.476 9.6 133.306 8.44 134.506 7.6C135.706 6.76 137.146 6.34 138.826 6.34C140.466 6.34 141.866 6.76 143.026 7.6C144.186 8.42 145.006 9.57 145.486 11.05C145.806 12.05 145.966 13.1 145.966 14.2C145.966 15.28 145.826 16.29 145.546 17.23C145.106 18.79 144.286 20.02 143.086 20.92C141.906 21.8 140.476 22.24 138.796 22.24ZM138.796 18.61C139.456 18.61 140.016 18.41 140.476 18.01C140.936 17.61 141.266 17.06 141.466 16.36C141.626 15.72 141.706 15.02 141.706 14.26C141.706 13.42 141.626 12.71 141.466 12.13C141.246 11.45 140.906 10.92 140.446 10.54C139.986 10.16 139.426 9.97 138.766 9.97C138.086 9.97 137.516 10.16 137.056 10.54C136.616 10.92 136.296 11.45 136.096 12.13C135.936 12.61 135.856 13.32 135.856 14.26C135.856 15.16 135.926 15.86 136.066 16.36C136.266 17.06 136.596 17.61 137.056 18.01C137.536 18.41 138.116 18.61 138.796 18.61Z" fill="#159FCD"/>
</svg>
